<?xml version="1.0" encoding="iso-8859-1"?>
<!-- Generator: Adobe Illustrator 19.0.0, SVG Export Plug-In . SVG Version: 6.00 Build 0)  -->
<svg version="1.1" id="Capa_1" xmlns="http://www.w3.org/2000/svg" xmlns:xlink="http://www.w3.org/1999/xlink" x="0px" y="0px"
	 viewBox="0 0 512 512" style="enable-background:new 0 0 512 512;" xml:space="preserve">
<path style="fill:#77C6D4;" d="M512,256c0,76.079-33.186,144.405-85.88,191.3C380.897,487.549,321.306,512,256,512
	C114.615,512,0,397.385,0,256c0-65.296,24.451-124.897,64.7-170.12c15.172-17.053,32.58-32.057,51.775-44.544
	C156.609,15.182,204.539,0,256,0C397.385,0,512,114.615,512,256z"/>
<path style="fill:#E8E4DB;" d="M426.12,447.3C380.897,487.549,321.306,512,256,512C114.615,512,0,397.385,0,256
	c0-65.296,24.451-124.897,64.7-170.12L426.12,447.3z"/>
<path style="fill:#FCF4EB;" d="M450.194,324.744c0,35.203-28.547,63.749-63.749,63.749c-8.37,0-16.353-1.609-23.667-4.535
	L64.7,85.88c15.172-17.053,32.58-32.057,51.775-44.544l156.808,155.523c9.979-4.65,21.107-7.262,32.841-7.262
	c13.458,0,26.112,3.417,37.157,9.435c9.331-10.48,22.925-17.084,38.066-17.084c28.17,0,51.001,22.841,51.001,51.001
	c0,14.085-5.716,26.833-14.942,36.07C436.966,279.907,450.194,300.774,450.194,324.744z"/>
<rect x="83.425" y="254.192" style="fill:#B07262;" width="17.241" height="28.735"/>
<polygon style="fill:#79AC66;" points="134.694,266.04 49.395,266.04 78.071,236.189 52.992,236.189 81.534,206.478 58.645,206.478 
	92.044,171.71 125.444,206.478 102.555,206.478 109.601,213.813 131.095,236.189 106.016,236.189 113.063,243.525 "/>
<rect x="222.908" y="438.554" style="fill:#B07262;" width="17.241" height="28.735"/>
<polygon style="fill:#79AC66;" points="274.18,450.404 188.883,450.404 217.557,420.552 192.479,420.552 221.021,390.841 
	198.131,390.841 231.532,356.073 264.931,390.841 242.041,390.841 249.088,398.177 270.582,420.552 245.503,420.552 252.55,427.888 
	"/>
<path style="fill:#E8E4DB;" d="M356.31,229.812c-3.125,0-6.158,0.392-9.056,1.123c16.012,4.038,27.864,18.531,27.864,35.796
	c0,17.265-11.853,31.759-27.864,35.797c2.898,0.73,5.931,1.123,9.056,1.123c20.39,0,36.919-16.529,36.919-36.919
	C393.23,246.341,376.7,229.812,356.31,229.812z"/>
<g>
	<circle style="fill:#FCF4EB;" cx="330.533" cy="152.492" r="19.505"/>
	<circle style="fill:#FCF4EB;" cx="376.508" cy="152.837" r="11.494"/>
	<circle style="fill:#FCF4EB;" cx="167.466" cy="58.514" r="8.641"/>
	<circle style="fill:#FCF4EB;" cx="202.083" cy="77.542" r="16.781"/>
</g>
<g>
	<path style="fill:#E8E4DB;" d="M212.758,205.378L212.758,205.378c-1.632,1.632-4.279,1.632-5.911,0L84.69,83.22
		c-1.632-1.632-1.632-4.279,0-5.911l0,0c1.632-1.632,4.279-1.632,5.911,0l122.157,122.157
		C214.39,201.099,214.39,203.746,212.758,205.378z"/>
	<path style="fill:#E8E4DB;" d="M264.306,223.489L264.306,223.489c-1.632,1.632-4.279,1.632-5.911,0L136.238,101.332
		c-1.632-1.632-1.632-4.279,0-5.911l0,0c1.632-1.632,4.279-1.632,5.911,0l122.157,122.157
		C265.938,219.21,265.938,221.857,264.306,223.489z"/>
</g>
<g>
</g>
<g>
</g>
<g>
</g>
<g>
</g>
<g>
</g>
<g>
</g>
<g>
</g>
<g>
</g>
<g>
</g>
<g>
</g>
<g>
</g>
<g>
</g>
<g>
</g>
<g>
</g>
<g>
</g>
</svg>
