<svg xmlns="http://www.w3.org/2000/svg" xmlns:xlink="http://www.w3.org/1999/xlink" id="Capa_1" x="0" y="0" version="1.1" viewBox="0 0 480 480" xml:space="preserve" style="enable-background:new 0 0 480 480"><path style="fill:#846328" d="M141.968,64H200V48h-43.264l17.144-18.568l-11.76-10.864L144,38.2V8h-16v47.536l-55.384,60	L46.248,104L31.76,46.064l-15.52,3.872l11.488,45.968l-16.52-7.232l-6.416,14.656L64,129.232V328h16V190.368l97.8-22.568	l-3.368-15.64l-23.96,4.784l16.688-33.368l-14.32-7.152l-23.008,46.024L80,173.944v-42.816L141.968,64z"/><path style="fill:#dcdcda" d="M344,208h112v120H344V208z"/><path style="fill:#d3ac5c" d="M0,320h480v160H0V320z"/><g><circle style="fill:#db735c" cx="288" cy="88" r="40"/><path style="fill:#db735c" d="M280,0h16v32h-16V0z"/><path style="fill:#db735c" d="M280,144h16v32h-16V144z"/><path style="fill:#db735c" d="M200,80h32v16h-32V80z"/><path style="fill:#db735c" d="M344,80h32v16h-32V80z"/><path style="fill:#db735c" d="M323.072,41.617l23.274-23.274l11.313,11.313L334.384,52.93L323.072,41.617z"/><path style="fill:#db735c" d="M218.344,146.34l23.274-23.274l11.313,11.313l-23.274,23.274L218.344,146.34z"/><path style="fill:#db735c" d="M218.347,29.637l11.313-11.313l23.274,23.274L241.62,52.911L218.347,29.637z"/><path style="fill:#db735c" d="M323.073,134.411l11.314-11.311l23.273,23.281l-11.314,11.311L323.073,134.411z"/></g><path style="fill:#846328" d="M452,448l-44-58.664V320h-16v64.524c-11.574,1.471-22.566,5.928-31.895,12.933L304,348.366V320h-16	v27.836l-71.75,50.227l-60.728-47.232c7.599-8.525,12.009-19.42,12.478-30.831h-16c0,32.414-70.141,72-152,72v16	c57.991,0,113.816-19.297,144.26-45.666L208,411.909V480h16v-67.835l71.448-50.014l52.879,46.269	C335.071,423.89,327.852,443.628,328,464v16h16v-16c0-33.812,23.078-61.512,52.17-63.778l45.431,60.575	c1.509,2.016,3.88,3.203,6.398,3.203h32v-16H452z"/><path style="fill:#309ab7" d="M400,136l-80,80h160L400,136z"/><path style="fill:#64c2d8" d="M400,136l-80,80h48L400,136z"/></svg>