<svg height="512" viewBox="0 0 512 512" width="512" xmlns="http://www.w3.org/2000/svg"><g id="Flat"><path d="m408 320v24a8 8 0 0 0 16 0v-24a8 8 0 0 0 0-16h-16a8 8 0 0 0 0 16z" fill="#009d54"/><path d="m424 432v-24a8 8 0 0 0 -16 0v24a8 8 0 0 0 0 16h16a8 8 0 0 0 0-16z" fill="#009d54"/><path d="m480 360a8 8 0 0 0 -8 8h-24a8 8 0 0 0 0 16h24a8 8 0 0 0 16 0v-16a8 8 0 0 0 -8-8z" fill="#009d54"/><path d="m384 384a8 8 0 0 0 0-16h-24a8 8 0 0 0 -16 0v16a8 8 0 0 0 16 0z" fill="#009d54"/><circle cx="416" cy="376" fill="#5ec09b" r="32"/><path d="m458.34 402.34-2.34 2.35-11.72-11.69a8 8 0 0 0 -11.28 11.28l11.69 11.72-2.35 2.34a8 8 0 0 0 11.32 11.32l16-16a8 8 0 0 0 -11.32-11.32z" fill="#009d54"/><path d="m433 359a8 8 0 0 0 11.31 0l11.69-11.69 2.34 2.35a8 8 0 0 0 11.32-11.32l-16-16a8 8 0 0 0 -11.32 11.32l2.35 2.34-11.69 11.72a8 8 0 0 0 0 11.28z" fill="#009d54"/><path d="m368 352a8 8 0 0 0 5.66-2.34l2.34-2.35 11.72 11.69a8 8 0 0 0 11.28-11.28l-11.69-11.72 2.35-2.34a8 8 0 0 0 -11.32-11.32l-16 16a8 8 0 0 0 5.66 13.66z" fill="#009d54"/><path d="m399 393a8 8 0 0 0 -11.31 0l-11.69 11.69-2.34-2.35a8 8 0 0 0 -11.32 11.32l16 16a8 8 0 0 0 11.32-11.32l-2.35-2.34 11.69-11.72a8 8 0 0 0 0-11.28z" fill="#009d54"/><path d="m416 416a40 40 0 1 1 40-40 40 40 0 0 1 -40 40zm0-64a24 24 0 1 0 24 24 24 24 0 0 0 -24-24z" fill="#1a9663"/><path d="m208 56-4.42-8.84a41.88 41.88 0 0 0 -37.47-23.16h-4.22a41.88 41.88 0 0 0 -37.47 23.16 41.84 41.84 0 0 0 -4.42 18.73v46.11l-40 16-32 96 32 32v168l16 8v56h64v-24l-16-8v-24l16-8 16-80v80l16 8v56h64v-24l-16-8v-24l16-8v-168l80-56 8 8 32-24-24-32-32 16-32 16-32-56-48-16z" fill="#eceff0"/><circle cx="420.37" cy="227.87" fill="#5ec09b" r="16"/><circle cx="40" cy="112" fill="#5ec09b" r="16"/><circle cx="408" cy="40" fill="#5ec09b" r="16"/><circle cx="472" cy="472" fill="#5ec09b" r="16"/><circle cx="304" cy="384" fill="#5ec09b" r="16"/><circle cx="304.36" cy="82.57" fill="#5ec09b" r="16"/><g fill="#7bd7ef"><circle cx="360" cy="272" r="8"/><circle cx="488" cy="24" r="8"/><circle cx="304" cy="296" r="8"/><circle cx="48" cy="32" r="8"/><circle cx="360" cy="48" r="8"/><circle cx="248" cy="32" r="8"/><circle cx="312" cy="464" r="8"/><circle cx="392" cy="472" r="8"/><circle cx="472" cy="280" r="8"/></g><path d="m184 80-8 8h-16v16s0 16 24 16 24-16 24-16v-16h-16z" fill="#aedef8"/><path d="m120 80a8 8 0 0 1 0-16h32a8 8 0 0 1 0 16z" fill="#fcc200"/><path d="m176 352a8 8 0 0 1 -8-8v-224a8 8 0 0 1 16 0v224a8 8 0 0 1 -8 8z" fill="#00a8e7"/><path d="m248 216h-144a8 8 0 0 1 0-16h144a8 8 0 0 1 0 16z" fill="#00a8e7"/><path d="m248 264a8 8 0 0 1 -8-8v-80a8 8 0 0 1 16 0v80a8 8 0 0 1 -8 8z" fill="#d1e1e5"/><path d="m192 432h48v24l16 8v24h-64z" fill="#00a8e7"/><path d="m96 432h48v24l16 8v24h-64z" fill="#00a8e7"/><path d="m344 208-24-40 32-16 24 32z" fill="#00a8e7"/><path d="m48 312h24a24 24 0 0 1 24 24v152a0 0 0 0 1 0 0h-72a0 0 0 0 1 0 0v-152a24 24 0 0 1 24-24z" fill="#1a9663"/><path d="m48 288h24v24h-24z" fill="#fcc200"/><path d="m160 288a8 8 0 0 1 -4-14.95l168-96a8 8 0 0 1 8 13.95l-168 96a8 8 0 0 1 -4 1z" fill="#fcc200"/><path d="m360 168a8 8 0 0 1 -5.66-13.66l24-24a8 8 0 0 1 5.66-2.34h16a8 8 0 0 1 0 16h-12.69l-21.65 21.66a8 8 0 0 1 -5.66 2.34z" fill="#fcc200"/><path d="m100 408a44.05 44.05 0 0 1 -44-44v-52a8 8 0 0 1 16 0v52a28 28 0 0 0 56 0v-44a8 8 0 0 1 16 0v44a44.05 44.05 0 0 1 -44 44z" fill="#42a87e"/><path d="m488 144h-56a8 8 0 0 1 0-16h56a8 8 0 0 1 0 16z" fill="#aedef8"/><path d="m424 120a8 8 0 0 1 -3.59-15.16l48-24a8 8 0 0 1 7.16 14.32l-48 24a8 8 0 0 1 -3.57.84z" fill="#aedef8"/><path d="m472 192a8 8 0 0 1 -3.57-.84l-48-24a8 8 0 0 1 7.16-14.32l48 24a8 8 0 0 1 -3.59 15.16z" fill="#aedef8"/><path d="m199.78 55.82-31.78.12a16 16 0 0 0 -16 16 16 16 0 0 0 16 16h8l8-8 8 8 8-.08a16 16 0 0 0 15.86-16 16 16 0 0 0 -16.08-16.04z" fill="#aedef8"/><path d="m176 96h-8a24 24 0 0 1 -.09-48.06l31.81-.12h.1a24 24 0 0 1 24 24 24.12 24.12 0 0 1 -23.78 24.07l-8 .08h-.04a8 8 0 0 1 -5.66-2.34l-2.34-2.32-2.34 2.35a8 8 0 0 1 -5.66 2.34zm23.81-32.18-31.81.12a8 8 0 0 0 0 16.06h4.66l5.65-5.66a8 8 0 0 1 11.32 0l5.65 5.66h4.65a8.06 8.06 0 0 0 5.58-13.76 7.89 7.89 0 0 0 -5.7-2.34z" fill="#00a8e7"/><path d="m136 328h-.57a8 8 0 0 1 -5.83-3.18l-23.66-31.55-31.6-31.59a8 8 0 1 1 11.32-11.32l32 32a10.15 10.15 0 0 1 .74.86l18.47 24.62 19.82-19.84-18.35-18.34a8 8 0 0 1 -2.34-5.66v-12.69l-37.66-37.65a8 8 0 0 1 -2.1-7.6l8-32a8 8 0 0 1 15.52 3.88l-6.9 27.61 36.8 36.79a8 8 0 0 1 2.34 5.66v12.69l21.66 21.65a8 8 0 0 1 0 11.32l-32 32a8 8 0 0 1 -5.66 2.34z" fill="#d1e1e5"/><path d="m112 288 32-24 24 24-32 32z" fill="#00a8e7"/></g></svg>