<?xml version="1.0" encoding="iso-8859-1"?>
<!-- Generator: Adobe Illustrator 19.0.0, SVG Export Plug-In . SVG Version: 6.00 Build 0)  -->
<svg version="1.1" id="Capa_1" xmlns="http://www.w3.org/2000/svg" xmlns:xlink="http://www.w3.org/1999/xlink" x="0px" y="0px"
	 viewBox="0 0 512 512" style="enable-background:new 0 0 512 512;" xml:space="preserve">
<linearGradient id="SVGID_1_" gradientUnits="userSpaceOnUse" x1="428.7436" y1="172.7691" x2="428.7436" y2="31.529" gradientTransform="matrix(1.0039 0 0 -1.0039 0.1922 516.5529)">
	<stop  offset="0" style="stop-color:#E2EDF2"/>
	<stop  offset="1" style="stop-color:#9FC7E2"/>
</linearGradient>
<rect x="365.819" y="322.877" style="fill:url(#SVGID_1_);" width="129.596" height="159.664"/>
<linearGradient id="SVGID_2_" gradientUnits="userSpaceOnUse" x1="459.7889" y1="43.6596" x2="314.1789" y2="125.2396" gradientTransform="matrix(1.0039 0 0 -1.0039 0.1922 516.5529)">
	<stop  offset="0" style="stop-color:#E2EDF2;stop-opacity:0"/>
	<stop  offset="1" style="stop-color:#A5B0B8"/>
</linearGradient>
<polygon style="fill:url(#SVGID_2_);" points="368.929,357.119 365.819,357.119 365.819,482.536 495.412,482.536 "/>
<linearGradient id="SVGID_3_" gradientUnits="userSpaceOnUse" x1="432.5377" y1="209.339" x2="432.5377" y2="157.9891" gradientTransform="matrix(1.0039 0 0 -1.0039 0.1922 516.5529)">
	<stop  offset="0" style="stop-color:#816965"/>
	<stop  offset="1" style="stop-color:#654E48"/>
</linearGradient>
<path style="fill:url(#SVGID_3_);" d="M365.819,357.09h129.315c5.299,0,9.093-5.117,7.553-10.187l-12.832-42.27
	c-1.01-3.327-4.077-5.601-7.553-5.601H365.819V357.09z"/>
<linearGradient id="SVGID_4_" gradientUnits="userSpaceOnUse" x1="203.1221" y1="239.2391" x2="203.1221" y2="-55.591" gradientTransform="matrix(1.0039 0 0 -1.0039 0.1922 516.5529)">
	<stop  offset="0" style="stop-color:#E2EDF2"/>
	<stop  offset="1" style="stop-color:#9FC7E2"/>
</linearGradient>
<polygon style="fill:url(#SVGID_4_);" points="368.356,229.653 368.356,482.536 39.866,482.536 39.866,229.653 204.11,64.414 "/>
<linearGradient id="SVGID_5_" gradientUnits="userSpaceOnUse" x1="226.5891" y1="248.7995" x2="83.4191" y2="391.9695" gradientTransform="matrix(1.0039 0 0 -1.0039 0.1922 516.5529)">
	<stop  offset="0" style="stop-color:#E2EDF2;stop-opacity:0"/>
	<stop  offset="1" style="stop-color:#A5B0B8"/>
</linearGradient>
<polygon style="fill:url(#SVGID_5_);" points="368.349,229.657 368.349,482.535 264.644,482.535 39.866,257.767 39.866,229.657 
	204.107,64.422 222.278,82.693 224.356,84.791 "/>
<linearGradient id="SVGID_6_" gradientUnits="userSpaceOnUse" x1="352.7391" y1="158.0996" x2="201.5991" y2="309.2396" gradientTransform="matrix(1.0039 0 0 -1.0039 0.1922 516.5529)">
	<stop  offset="0" style="stop-color:#E2EDF2;stop-opacity:0"/>
	<stop  offset="1" style="stop-color:#A5B0B8"/>
</linearGradient>
<path style="fill:url(#SVGID_6_);" d="M368.349,286.991v169.763L161.802,250.197c-12.208-11.013-19.898-26.955-19.898-44.654
	c0-33.149,26.975-60.125,60.125-60.125c17.699,0,33.631,7.69,44.654,19.908L368.349,286.991z"/>
<linearGradient id="SVGID_7_" gradientUnits="userSpaceOnUse" x1="214.6256" y1="55.7461" x2="67.0156" y2="203.3661" gradientTransform="matrix(1.0039 0 0 -1.0039 0.1922 516.5529)">
	<stop  offset="0" style="stop-color:#E2EDF2;stop-opacity:0"/>
	<stop  offset="1" style="stop-color:#A5B0B8"/>
</linearGradient>
<path style="fill:url(#SVGID_7_);" d="M317.596,482.536H156.944l-88.31-88.31c-3.888-2.52-6.475-6.894-6.475-11.855v-71.076
	c0-7.786,6.34-14.127,14.127-14.127h51.241c4.972,0,9.347,2.588,11.866,6.475l-0.384,0.305L317.596,482.536z"/>
<path style="fill:#503837;" d="M127.527,388.216H76.29c-3.231,0-5.851-2.619-5.851-5.851V311.3c0-3.231,2.619-5.851,5.851-5.851
	h51.237c3.231,0,5.851,2.619,5.851,5.851v71.065C133.377,385.596,130.758,388.216,127.527,388.216z"/>
<path style="fill:#FFFFFF;" d="M127.527,396.497H76.29c-7.792,0-14.131-6.34-14.131-14.131V311.3c0-7.792,6.34-14.131,14.131-14.131
	h51.237c7.792,0,14.131,6.34,14.131,14.131v71.066C141.658,390.157,135.32,396.497,127.527,396.497z M78.721,379.934h46.375v-66.203
	H78.721V379.934z"/>
<linearGradient id="SVGID_8_" gradientUnits="userSpaceOnUse" x1="380.4594" y1="95.4899" x2="285.9394" y2="189.9998" gradientTransform="matrix(1.0039 0 0 -1.0039 0.1922 516.5529)">
	<stop  offset="0" style="stop-color:#E2EDF2;stop-opacity:0"/>
	<stop  offset="1" style="stop-color:#A5B0B8"/>
</linearGradient>
<path style="fill:url(#SVGID_8_);" d="M368.362,326.484v156.052h-5.041l-88.31-88.31c-3.899-2.52-6.487-6.894-6.487-11.855v-71.076
	c0-7.786,6.34-14.127,14.138-14.127h51.23c4.972,0,9.346,2.588,11.866,6.475l0.204,0.159l-0.136,0.147L368.362,326.484z"/>
<path style="fill:#503837;" d="M333.895,388.216h-51.237c-3.232,0-5.851-2.619-5.851-5.851V311.3c0-3.231,2.619-5.851,5.851-5.851
	h51.237c3.232,0,5.851,2.619,5.851,5.851v71.065C339.746,385.596,337.127,388.216,333.895,388.216z"/>
<path style="fill:#FFFFFF;" d="M333.895,396.497h-51.237c-7.792,0-14.131-6.34-14.131-14.131V311.3
	c0-7.792,6.34-14.131,14.131-14.131h51.237c7.792,0,14.131,6.34,14.131,14.131v71.066
	C348.027,390.157,341.688,396.497,333.895,396.497z M285.09,379.934h46.375v-66.203H285.09V379.934z"/>
<linearGradient id="SVGID_9_" gradientUnits="userSpaceOnUse" x1="203.0996" y1="328.859" x2="203.0996" y2="163.1691" gradientTransform="matrix(1.0039 0 0 -1.0039 0.1922 516.5529)">
	<stop  offset="0" style="stop-color:#816965"/>
	<stop  offset="1" style="stop-color:#654E48"/>
</linearGradient>
<path style="fill:url(#SVGID_9_);" d="M405.498,252.497L213.995,60.933c-5.458-5.458-14.309-5.458-19.767,0L2.678,252.482
	c-3.571,3.571-3.571,9.361,0,12.932l8.164,8.164c3.571,3.571,9.361,3.571,12.932,0L201.509,95.842c1.437-1.437,3.767-1.437,5.204,0
	l177.689,177.75c3.571,3.571,9.361,3.571,12.932,0l8.164-8.164C409.069,261.858,409.069,256.068,405.498,252.497z"/>
<linearGradient id="SVGID_10_" gradientUnits="userSpaceOnUse" x1="383.6576" y1="261.378" x2="314.3076" y2="330.7281" gradientTransform="matrix(1.0039 0 0 -1.0039 0.1922 516.5529)">
	<stop  offset="0" style="stop-color:#654E48;stop-opacity:0"/>
	<stop  offset="1" style="stop-color:#503837"/>
</linearGradient>
<path style="fill:url(#SVGID_10_);" d="M213.995,60.933c-2.73-2.73-6.307-4.094-9.884-4.094v37.925c0.942,0,1.883,0.359,2.602,1.078
	l177.689,177.75c3.571,3.571,9.361,3.571,12.932,0l8.164-8.164c3.571-3.571,3.571-9.361,0-12.932L213.995,60.933z"/>
<path style="fill:#DB9E36;" d="M169.882,482.531v-179.45c0-7.915,6.416-14.332,14.332-14.332h39.795
	c7.915,0,14.332,6.416,14.332,14.332v179.45H169.882z"/>
<path style="fill:#9E6429;" d="M246.817,482.531h-16.952V307.966c0-5.907-4.834-10.741-10.741-10.741h-30.025
	c-5.932,0-10.741,4.809-10.741,10.741v174.565h-16.952V296.756c0-9.104,7.38-16.483,16.483-16.483h52.445
	c9.104,0,16.483,7.38,16.483,16.483L246.817,482.531L246.817,482.531z"/>
<circle style="fill:#FFFFFF;" cx="191.97" cy="356.107" r="7.729"/>
<rect x="39.861" y="437.304" style="fill:#654E48;" width="328.503" height="45.227"/>
<linearGradient id="SVGID_11_" gradientUnits="userSpaceOnUse" x1="20.7748" y1="81.4273" x2="80.1068" y2="22.0973" gradientTransform="matrix(1.0039 0 0 -1.0039 0.1922 516.5529)">
	<stop  offset="0" style="stop-color:#9EB644"/>
	<stop  offset="1" style="stop-color:#738611"/>
</linearGradient>
<path style="fill:url(#SVGID_11_);" d="M96.543,464.86c0,6.24-1.181,12.198-3.336,17.671H3.336C1.181,477.058,0,471.101,0,464.86
	c0-6.077,1.12-11.887,3.172-17.24c6.939-18.154,24.515-31.032,45.099-31.032s38.161,12.878,45.099,31.032
	C95.423,452.974,96.543,458.783,96.543,464.86z"/>
<linearGradient id="SVGID_12_" gradientUnits="userSpaceOnUse" x1="72.4319" y1="68.3724" x2="115.4719" y2="25.3324" gradientTransform="matrix(1.0039 0 0 -1.0039 0.1922 516.5529)">
	<stop  offset="0" style="stop-color:#9EB644"/>
	<stop  offset="1" style="stop-color:#738611"/>
</linearGradient>
<path style="fill:url(#SVGID_12_);" d="M127.671,469.713c0,4.527-0.856,8.848-2.419,12.818H60.058
	c-1.563-3.971-2.419-8.291-2.419-12.818c0-4.408,0.813-8.623,2.301-12.506c5.034-13.168,17.783-22.511,32.716-22.511
	s27.682,9.341,32.716,22.511C126.858,461.09,127.671,465.305,127.671,469.713z"/>
<linearGradient id="SVGID_13_" gradientUnits="userSpaceOnUse" x1="422.1512" y1="89.3017" x2="491.3112" y2="20.1417" gradientTransform="matrix(1.0039 0 0 -1.0039 0.1922 516.5529)">
	<stop  offset="0" style="stop-color:#9EB644"/>
	<stop  offset="1" style="stop-color:#738611"/>
</linearGradient>
<path style="fill:url(#SVGID_13_);" d="M512,461.933c0,7.274-1.376,14.219-3.888,20.598H403.35
	c-2.512-6.381-3.888-13.324-3.888-20.598c0-7.084,1.306-13.856,3.697-20.097c8.089-21.162,28.577-36.173,52.571-36.173
	c23.995,0,44.483,15.012,52.571,36.173C510.694,448.076,512,454.849,512,461.933z"/>
<circle style="fill:#503837;" cx="202.029" cy="205.549" r="51.778"/>
<path style="fill:#FFFFFF;" d="M202.029,145.417c-33.156,0-60.13,26.973-60.13,60.13s26.973,60.13,60.13,60.13
	s60.13-26.973,60.13-60.13S235.185,145.417,202.029,145.417z M244.642,197.195H210.38v-34.262
	C227.638,166.31,241.265,179.937,244.642,197.195z M193.678,162.934v34.262h-34.262C162.792,179.937,176.419,166.31,193.678,162.934
	z M159.416,213.898h34.262v34.262C176.419,244.783,162.792,231.156,159.416,213.898z M210.38,248.159v-34.262h34.262
	C241.265,231.156,227.638,244.783,210.38,248.159z"/>
<radialGradient id="SVGID_14_" cx="95.5699" cy="425.7049" r="249.38" gradientTransform="matrix(0.9927 -0.1499 -0.1499 -0.9927 382.6697 541.1397)" gradientUnits="userSpaceOnUse">
	<stop  offset="0" style="stop-color:#FF931E"/>
	<stop  offset="0.345" style="stop-color:#FE911D;stop-opacity:0.655"/>
	<stop  offset="0.537" style="stop-color:#FA891B;stop-opacity:0.463"/>
	<stop  offset="0.691" style="stop-color:#F37B16;stop-opacity:0.309"/>
	<stop  offset="0.826" style="stop-color:#E96710;stop-opacity:0.174"/>
	<stop  offset="0.946" style="stop-color:#DC4E08;stop-opacity:0.054"/>
	<stop  offset="1" style="stop-color:#D54003;stop-opacity:0"/>
</radialGradient>
<path style="fill:url(#SVGID_14_);" d="M489.263,267.242c-0.08-0.454-0.161-0.909-0.24-1.362l-0.018-0.118
	c-0.085-0.454-0.173-0.913-0.259-1.371l-0.004-0.028c-0.086-0.419-0.168-0.844-0.254-1.263c-0.107-0.559-0.227-1.122-0.346-1.687
	c-0.199-0.937-0.411-1.878-0.627-2.818c-0.22-0.963-0.459-1.935-0.704-2.904c-0.118-0.483-0.244-0.971-0.375-1.458
	c-0.224-0.87-0.459-1.739-0.705-2.611c-0.051-0.188-0.102-0.37-0.154-0.558c-0.135-0.475-0.27-0.95-0.412-1.429
	c-0.97-3.331-2.055-6.673-3.245-10.011c-0.338-0.945-0.683-1.888-1.039-2.837c-0.01-0.027-0.02-0.054-0.03-0.082
	c-0.347-0.927-0.705-1.845-1.063-2.77c-0.214-0.538-0.428-1.075-0.641-1.613c-0.354-0.862-0.71-1.724-1.069-2.585
	c-0.208-0.498-0.416-0.997-0.634-1.493c-0.204-0.47-0.408-0.946-0.611-1.417c-0.209-0.469-0.419-0.945-0.628-1.42
	c-0.163-0.355-0.32-0.712-0.483-1.067c-0.111-0.242-0.223-0.485-0.335-0.733c-0.585-1.282-1.193-2.56-1.811-3.837
	c-0.226-0.467-0.458-0.933-0.69-1.404c-0.226-0.467-0.463-0.932-0.701-1.396c-0.2-0.408-0.41-0.807-0.615-1.214
	c-0.743-1.454-1.509-2.904-2.291-4.346c-0.248-0.464-0.502-0.921-0.755-1.377c-0.254-0.463-0.507-0.92-0.766-1.375
	c-0.254-0.463-0.513-0.919-0.777-1.373c-0.259-0.456-0.523-0.912-0.788-1.366c-2.379-4.091-4.904-8.114-7.571-12.046
	c-0.541-0.799-1.086-1.592-1.637-2.383c-4.695-6.734-9.791-13.185-15.228-19.22c-0.283-0.314-0.567-0.628-0.855-0.936
	c-0.359-0.395-0.718-0.79-1.082-1.178c-0.363-0.389-0.729-0.782-1.091-1.166c-0.355-0.372-0.706-0.746-1.067-1.117
	c-0.745-0.78-1.5-1.547-2.261-2.313c-0.752-0.75-1.504-1.494-2.266-2.232c-0.25-0.244-0.505-0.488-0.761-0.732
	c-0.304-0.299-0.613-0.592-0.927-0.879c-0.222-0.214-0.444-0.423-0.677-0.629c-0.356-0.337-0.718-0.675-1.084-1.005
	c-0.381-0.356-0.775-0.712-1.168-1.061c-0.387-0.35-0.778-0.695-1.171-1.044c-0.432-0.378-0.862-0.756-1.299-1.133
	c-0.31-0.264-0.621-0.534-0.932-0.798c-0.443-0.376-0.884-0.747-1.331-1.117c-0.402-0.336-0.802-0.662-1.209-0.992
	c-0.354-0.286-0.708-0.572-1.062-0.858c-0.452-0.363-0.91-0.721-1.366-1.077c-0.359-0.285-0.724-0.564-1.083-0.844
	c-2.096-1.606-4.217-3.145-6.367-4.611c-0.417-0.282-0.833-0.565-1.251-0.847c-1.319-0.883-2.651-1.736-3.991-2.564
	c-0.42-0.259-0.838-0.518-1.262-0.771c-3.407-2.053-6.881-3.935-10.406-5.619c-0.447-0.215-0.893-0.424-1.344-0.631
	c-2.574-1.189-5.173-2.276-7.801-3.249c-0.441-0.17-0.878-0.328-1.323-0.485c-0.365-0.135-0.73-0.258-1.1-0.387
	c-0.723-0.248-1.45-0.489-2.176-0.719c-0.375-0.121-0.756-0.243-1.136-0.358c-0.857-0.262-1.718-0.512-2.583-0.75
	c-0.378-0.104-0.757-0.208-1.134-0.306c-0.335-0.087-0.672-0.175-1.012-0.262c-0.294-0.076-0.586-0.148-0.884-0.218
	c-0.352-0.085-0.711-0.169-1.069-0.253c-0.292-0.065-0.59-0.136-0.887-0.2c-1.03-0.225-2.069-0.436-3.111-0.624
	c-0.398-0.078-0.799-0.145-1.202-0.216c-0.029-0.001-0.064-0.007-0.094-0.014c-0.059-0.008-0.117-0.017-0.177-0.025
	c-1.224-0.097-3.062,0.808-2.246,2.855c13.029,32.679,5.987,69.959-18.103,95.599c-1.562,1.663-3.058,3.386-4.482,5.161
	c-3.821,4.78-7.121,9.953-9.828,15.433c-0.147,0.287-0.287,0.578-0.422,0.869c-0.871,1.813-1.676,3.655-2.406,5.528
	c-0.126,0.312-0.25,0.63-0.369,0.948c-0.137,0.354-0.266,0.714-0.397,1.073c-0.136,0.36-0.26,0.719-0.384,1.082
	c-0.129,0.359-0.248,0.723-0.371,1.086c-0.117,0.363-0.236,0.727-0.352,1.095c-0.102,0.315-0.199,0.628-0.295,0.943
	c-0.121,0.416-0.248,0.837-0.368,1.259c-0.105,0.367-0.206,0.734-0.305,1.105c-0.099,0.372-0.199,0.744-0.292,1.115
	c-0.119,0.467-0.233,0.934-0.341,1.398c-0.067,0.281-0.135,0.561-0.195,0.847c-0.135,0.596-0.263,1.192-0.38,1.79
	c-0.06,0.285-0.116,0.564-0.166,0.848c-0.069,0.344-0.133,0.688-0.19,1.03c-0.424,2.418-0.74,4.861-0.938,7.327
	c-0.027,0.28-0.048,0.56-0.069,0.839c-0.044,0.658-0.082,1.319-0.109,1.98c-0.02,0.36-0.03,0.719-0.045,1.072
	c-0.035,1.215-0.047,2.431-0.03,3.649c0.012,0.689,0.03,1.382,0.06,2.075c0.001,0.015,0.001,0.032,0.002,0.05
	c0.176,3.315-4.452,4.324-5.64,1.225c-2.726-7.107-5.102-16.368-4.93-26.822c0.044-2.667-3.629-3.424-4.597-0.939
	c-3.966,10.182-7.555,26.909-2.324,49.058c7.649,32.391,41.155,65.274,110.458,55.615c0.749-0.097,1.498-0.203,2.249-0.32
	c2.48-0.392,4.909-0.885,7.294-1.482c1.341-0.34,2.672-0.715,3.989-1.114c0.347-0.104,0.693-0.214,1.039-0.324
	c26.275-8.464,45.99-29.685,53.686-55.383c0.094-0.325,0.19-0.651,0.28-0.969c0.056-0.199,0.112-0.397,0.169-0.595
	c0.039-0.162,0.084-0.318,0.13-0.475c0.089-0.324,0.172-0.654,0.261-0.978c0.077-0.328,0.16-0.658,0.243-0.981
	c0.082-0.329,0.16-0.658,0.237-0.986c1.652-7.055,2.41-14.388,2.164-21.846c-0.094-2.991-0.353-5.997-0.78-9.013
	c-0.053-0.354-0.101-0.71-0.154-1.059C489.429,268.23,489.349,267.736,489.263,267.242z"/>
<radialGradient id="SVGID_15_" cx="-55.6757" cy="385.2351" r="149.14" gradientTransform="matrix(1.0006 0.082 0.082 -1.0006 406.287 590.9219)" gradientUnits="userSpaceOnUse">
	<stop  offset="0" style="stop-color:#FFBF5C"/>
	<stop  offset="0.325" style="stop-color:#FFBD5A;stop-opacity:0.773"/>
	<stop  offset="0.508" style="stop-color:#FFB452;stop-opacity:0.645"/>
	<stop  offset="0.655" style="stop-color:#FFA745;stop-opacity:0.541"/>
	<stop  offset="0.784" style="stop-color:#FF9333;stop-opacity:0.451"/>
	<stop  offset="0.9" style="stop-color:#FF7A1B;stop-opacity:0.37"/>
	<stop  offset="1" style="stop-color:#FF5D00;stop-opacity:0.3"/>
</radialGradient>
<path style="fill:url(#SVGID_15_);" d="M460.376,308.079c-1.752,28.462-26.338,50.594-54.772,48.434
	c-28.206-2.143-49.243-26.824-46.936-54.977c1.187-14.478,8.618-27.019,19.383-35.449c18.216-14.267,27.654-36.38,27.589-59.518
	c0-0.039,0.003-0.057,0.011-0.054C441.197,219.803,462.729,269.863,460.376,308.079z"/>
<radialGradient id="SVGID_16_" cx="491.9286" cy="261.219" r="49.822" gradientTransform="matrix(1.0039 0 0 -1.0039 0.1922 516.5529)" gradientUnits="userSpaceOnUse">
	<stop  offset="0" style="stop-color:#FFBF5C"/>
	<stop  offset="0.328" style="stop-color:#FFBD5A"/>
	<stop  offset="0.511" style="stop-color:#FFB552"/>
	<stop  offset="0.658" style="stop-color:#FFA745"/>
	<stop  offset="0.785" style="stop-color:#FF9333"/>
	<stop  offset="0.9" style="stop-color:#FF7A1B"/>
	<stop  offset="1" style="stop-color:#FF5D00"/>
</radialGradient>
<path style="fill:url(#SVGID_16_);" d="M494.559,253.446c2.679,12.061,6.099,35.005-1.152,53.094
	c-0.574,1.433,1.199,2.644,2.327,1.59c10.094-9.426,29.045-32.707,3.433-57.259C497.193,248.98,493.966,250.778,494.559,253.446z"/>
<linearGradient id="SVGID_17_" gradientUnits="userSpaceOnUse" x1="436.5868" y1="284.6213" x2="569.2368" y2="390.9813" gradientTransform="matrix(1.0039 0 0 -1.0039 0.1922 516.5529)">
	<stop  offset="1.000000e-004" style="stop-color:#E7EEED;stop-opacity:0"/>
	<stop  offset="1" style="stop-color:#E7EEED"/>
</linearGradient>
<path style="fill:url(#SVGID_17_);" d="M478.747,275.235c3.76,36.655-22.925,70.05-59.63,73.283
	c-36.411,3.208-68.43-23.828-71.417-60.207c-1.536-18.707,5.297-36.261,17.246-49.277c20.22-22.025,30.468-54.992,25.513-84.477
	c0-0.002,0-0.011,0.002-0.025c0.237-2.141,2.352-3.563,4.435-3.016C440.999,163.622,473.835,227.341,478.747,275.235z"/>
<radialGradient id="SVGID_18_" cx="370.4586" cy="335.449" r="163.43" gradientTransform="matrix(1.0039 0 0 -1.0039 0.1922 516.5529)" gradientUnits="userSpaceOnUse">
	<stop  offset="0" style="stop-color:#FF931E;stop-opacity:0"/>
	<stop  offset="0.335" style="stop-color:#FE911D;stop-opacity:0.335"/>
	<stop  offset="0.528" style="stop-color:#FA881B;stop-opacity:0.528"/>
	<stop  offset="0.686" style="stop-color:#F27A16;stop-opacity:0.686"/>
	<stop  offset="0.825" style="stop-color:#E8660F;stop-opacity:0.825"/>
	<stop  offset="0.949" style="stop-color:#DB4D07;stop-opacity:0.949"/>
	<stop  offset="1" style="stop-color:#D54003"/>
</radialGradient>
<path style="fill:url(#SVGID_18_);" d="M490.437,278.792c-0.094-2.991-0.353-5.997-0.78-9.013c-0.053-0.354-0.101-0.71-0.154-1.059
	c-0.074-0.49-0.155-0.984-0.24-1.478c-0.08-0.454-0.161-0.909-0.24-1.362l-0.018-0.118c-0.085-0.454-0.173-0.913-0.259-1.371
	l-0.004-0.028c-0.086-0.419-0.168-0.844-0.254-1.263c-0.107-0.559-0.227-1.122-0.346-1.687c-0.199-0.937-0.411-1.878-0.627-2.818
	c-0.22-0.963-0.459-1.935-0.704-2.904c-0.118-0.483-0.244-0.971-0.375-1.458c-0.224-0.87-0.459-1.739-0.705-2.611
	c-0.051-0.188-0.102-0.37-0.154-0.558c-0.135-0.475-0.27-0.95-0.412-1.429c-0.97-3.331-2.055-6.673-3.245-10.011
	c-0.338-0.945-0.683-1.888-1.039-2.837c-0.01-0.027-0.02-0.054-0.029-0.082c-0.347-0.927-0.705-1.845-1.063-2.77
	c-0.214-0.538-0.428-1.075-0.641-1.613c-0.354-0.861-0.71-1.724-1.069-2.584c-0.208-0.498-0.416-0.997-0.634-1.493
	c-0.204-0.47-0.408-0.946-0.611-1.417c-0.209-0.469-0.419-0.945-0.628-1.42c-0.164-0.355-0.32-0.712-0.484-1.067
	c-0.111-0.242-0.223-0.485-0.335-0.733c-0.585-1.282-1.193-2.56-1.811-3.837c-0.226-0.467-0.458-0.933-0.69-1.404
	c-0.226-0.467-0.463-0.932-0.701-1.396c-0.2-0.408-0.41-0.807-0.615-1.214c-0.743-1.454-1.509-2.904-2.291-4.346
	c-0.249-0.464-0.502-0.921-0.755-1.377c-0.254-0.463-0.507-0.92-0.766-1.375c-0.254-0.463-0.513-0.919-0.777-1.373
	c-0.259-0.456-0.523-0.912-0.788-1.366c-2.379-4.091-4.904-8.114-7.571-12.046c-0.541-0.799-1.086-1.592-1.637-2.383
	c-4.695-6.734-9.791-13.184-15.228-19.22c-0.283-0.314-0.567-0.628-0.855-0.936c-0.359-0.395-0.718-0.79-1.082-1.178
	c-0.363-0.389-0.729-0.782-1.091-1.166c-0.355-0.372-0.706-0.746-1.067-1.117c-0.746-0.78-1.5-1.547-2.261-2.313
	c-0.752-0.75-1.504-1.494-2.266-2.232c-0.25-0.244-0.505-0.488-0.761-0.732c-0.304-0.299-0.613-0.592-0.927-0.879
	c-0.222-0.214-0.444-0.423-0.677-0.629c-0.356-0.337-0.718-0.675-1.084-1.005c-0.381-0.356-0.775-0.712-1.168-1.061
	c-0.387-0.35-0.778-0.695-1.171-1.044c-0.432-0.378-0.862-0.756-1.299-1.133c-0.31-0.264-0.621-0.534-0.932-0.798
	c-0.443-0.376-0.884-0.747-1.331-1.117c-0.402-0.336-0.802-0.662-1.209-0.992c-0.354-0.286-0.708-0.572-1.062-0.858
	c-0.452-0.363-0.909-0.721-1.366-1.077c-0.359-0.285-0.724-0.564-1.083-0.844c-2.096-1.606-4.216-3.145-6.367-4.611
	c-0.417-0.282-0.834-0.565-1.251-0.847c-1.319-0.883-2.651-1.736-3.991-2.564c-0.42-0.259-0.838-0.518-1.262-0.771
	c-3.407-2.053-6.881-3.935-10.406-5.619c-0.447-0.215-0.893-0.424-1.344-0.631c-2.574-1.189-5.174-2.276-7.802-3.249
	c-0.441-0.17-0.878-0.328-1.322-0.485c-0.365-0.135-0.73-0.258-1.1-0.387c-0.723-0.248-1.45-0.489-2.176-0.72
	c-0.375-0.121-0.756-0.243-1.136-0.358c-0.857-0.262-1.718-0.512-2.583-0.75c-0.378-0.104-0.757-0.208-1.134-0.306
	c-0.335-0.087-0.672-0.175-1.012-0.262c-0.294-0.076-0.586-0.148-0.885-0.218c-0.352-0.085-0.711-0.169-1.069-0.253
	c-0.292-0.065-0.59-0.136-0.887-0.2c-1.03-0.225-2.069-0.436-3.111-0.624c-0.398-0.078-0.799-0.145-1.202-0.216
	c-0.029-0.001-0.064-0.008-0.094-0.015c-0.059-0.008-0.117-0.017-0.177-0.025c-1.145-0.091-2.829,0.697-2.37,2.477
	c-0.1,0.388-0.076,0.852,0.143,1.401c4.025,10.095,6.129,20.63,6.412,31.124c0.362,23.129-8.127,45.991-24.533,63.453
	c-1.562,1.663-3.058,3.386-4.483,5.161c-3.821,4.78-7.121,9.953-9.828,15.433c-0.147,0.287-0.287,0.578-0.422,0.869
	c-0.871,1.813-1.676,3.655-2.406,5.528c-0.125,0.312-0.25,0.63-0.369,0.948c-0.137,0.354-0.266,0.714-0.397,1.073
	c-0.136,0.36-0.26,0.719-0.383,1.082c-0.129,0.359-0.248,0.723-0.371,1.086c-0.117,0.363-0.236,0.727-0.352,1.095
	c-0.102,0.315-0.199,0.628-0.295,0.943c-0.121,0.416-0.248,0.837-0.368,1.259c-0.105,0.367-0.206,0.734-0.305,1.105
	c-0.099,0.372-0.199,0.744-0.292,1.115c-0.119,0.467-0.233,0.934-0.341,1.398c-0.067,0.281-0.135,0.561-0.195,0.847
	c-0.135,0.596-0.263,1.192-0.38,1.79c-0.06,0.285-0.116,0.564-0.166,0.848c-0.069,0.344-0.133,0.688-0.19,1.03
	c-0.424,2.418-0.74,4.861-0.938,7.327c-0.027,0.28-0.048,0.56-0.069,0.839c-0.044,0.658-0.082,1.319-0.109,1.98
	c-0.02,0.36-0.03,0.719-0.045,1.072c-0.035,1.215-0.047,2.43-0.03,3.649c0.003,0.199,0.013,0.4,0.017,0.598
	c0.001,0.142-0.001,0.283,0.001,0.425c0.007,0.428,0.024,0.858,0.037,1.289c-0.01,3.16-4.468,4.076-5.634,1.038
	c-2.725-7.107-5.102-16.368-4.93-26.822c0.044-2.667-3.629-3.424-4.597-0.939c-3.966,10.182-7.555,26.909-2.324,49.058
	c7.03,29.77,35.908,59.954,94.346,57.142c6.016,0.402,12.17,0.151,18.38-0.825c2.48-0.392,4.909-0.885,7.296-1.482
	c1.341-0.34,2.673-0.709,3.989-1.114c0.347-0.104,0.693-0.214,1.039-0.324c26.381-8.451,46.023-29.655,53.686-55.383
	c0.094-0.325,0.19-0.651,0.28-0.969c0.056-0.199,0.112-0.397,0.169-0.595c0.039-0.162,0.084-0.318,0.129-0.475
	c0.089-0.324,0.172-0.654,0.261-0.978c0.077-0.328,0.16-0.658,0.243-0.981c0.082-0.329,0.16-0.658,0.237-0.986
	c1.473-6.334,2.218-12.904,2.184-19.592C490.481,280.98,490.473,279.887,490.437,278.792z"/>
<linearGradient id="SVGID_19_" gradientUnits="userSpaceOnUse" x1="264.8087" y1="465.3092" x2="411.7087" y2="318.4092" gradientTransform="matrix(1.0039 0 0 -1.0039 0.1922 516.5529)">
	<stop  offset="0" style="stop-color:#E2EDF2"/>
	<stop  offset="1" style="stop-color:#9FC7E2"/>
</linearGradient>
<path style="fill:url(#SVGID_19_);" d="M266.999,91.856c0-11.054,8.961-20.015,20.015-20.015c3.607,0,6.983,0.968,9.906,2.637
	c5.919-4.959,13.545-7.95,21.87-7.95c18.821,0,34.078,15.258,34.078,34.078c0,4.549-0.898,8.887-2.516,12.854
	c6.917,3.066,11.749,9.981,11.749,18.034c0,10.897-8.834,19.73-19.73,19.73c-9.896,0-18.067-7.293-19.488-16.794
	c-1.343,0.161-2.707,0.253-4.093,0.253c-14.879,0-27.523-9.54-32.171-22.834C275.749,111.638,266.999,102.777,266.999,91.856z"/>
<linearGradient id="SVGID_20_" gradientUnits="userSpaceOnUse" x1="289.2558" y1="472.6132" x2="310.8857" y2="450.9762" gradientTransform="matrix(1.0039 0 0 -1.0039 0.1922 516.5529)">
	<stop  offset="0" style="stop-color:#E2EDF2"/>
	<stop  offset="1" style="stop-color:#9FC7E2"/>
</linearGradient>
<circle style="fill:url(#SVGID_20_);" cx="294.681" cy="46.186" r="16.727"/>
<g>
</g>
<g>
</g>
<g>
</g>
<g>
</g>
<g>
</g>
<g>
</g>
<g>
</g>
<g>
</g>
<g>
</g>
<g>
</g>
<g>
</g>
<g>
</g>
<g>
</g>
<g>
</g>
<g>
</g>
</svg>
