<?xml version="1.0" encoding="iso-8859-1"?>
<!-- Generator: Adobe Illustrator 19.0.0, SVG Export Plug-In . SVG Version: 6.00 Build 0)  -->
<svg version="1.1" id="Capa_1" xmlns="http://www.w3.org/2000/svg" xmlns:xlink="http://www.w3.org/1999/xlink" x="0px" y="0px"
	 viewBox="0 0 512 512" style="enable-background:new 0 0 512 512;" xml:space="preserve">
<circle style="fill:#00EFD1;" cx="256" cy="256" r="256"/>
<path style="fill:#00AD95;" d="M510.301,285.476L297.32,72.273l-168.025,70.441l15.919,37.971l14.57,14.671l-28.31,137.058
	l174.664,174.663C414.094,485.639,497.59,396.325,510.301,285.476z"/>
<polygon style="fill:#FFFFFF;" points="346.523,376.833 131.475,332.414 169.479,148.424 292.269,96.711 384.526,192.843 "/>
<polygon style="fill:#FFED97;" points="384.526,192.844 346.522,376.837 238.997,354.627 292.269,96.715 "/>
<rect x="209.385" y="229.887" transform="matrix(-0.9793 -0.2023 0.2023 -0.9793 438.9981 630.6713)" style="fill:#FFB74F;" width="84.688" height="126.027"/>
<rect x="209.457" y="276.028" transform="matrix(-0.2023 0.9793 -0.9793 -0.2023 618.6564 90.4867)" style="fill:#FF8900;" width="126.037" height="42.349"/>
<polygon style="fill:#FF0335;" points="145.214,180.685 129.296,142.714 297.32,72.273 423.683,203.521 394.023,232.077 
	287.225,121.15 "/>
<polygon style="fill:#990011;" points="423.68,203.522 394.019,232.08 379.53,217.035 287.222,121.15 297.319,72.27 "/>
<path style="fill:#6D76E7;" d="M256,512c122.643,0,225.124-86.249,250.144-201.396c-23.376,3.144-26.518,17.704-55.468,17.704
	c-32.45,0-32.45-18.308-64.901-18.308c-32.446,0-32.446,18.308-64.892,18.308c-32.447,0-32.447-18.308-64.894-18.308
	c-32.445,0-32.445,18.308-64.891,18.308c-32.445,0-32.445-18.308-64.89-18.308c-32.447,0-32.447,18.308-64.894,18.308
	c-28.944,0-32.086-14.559-55.458-17.704C30.876,425.751,133.357,512,256,512z"/>
<path style="fill:#1C2EDE;" d="M506.14,310.6C481.12,425.75,378.64,512,256,512V310c32.44,0,32.44,18.31,64.88,18.31
	c32.45,0,32.45-18.31,64.89-18.31c32.46,0,32.46,18.31,64.91,18.31C479.63,328.31,482.77,313.75,506.14,310.6z"/>
<g>
</g>
<g>
</g>
<g>
</g>
<g>
</g>
<g>
</g>
<g>
</g>
<g>
</g>
<g>
</g>
<g>
</g>
<g>
</g>
<g>
</g>
<g>
</g>
<g>
</g>
<g>
</g>
<g>
</g>
</svg>
