<svg id="Layer_3" enable-background="new 0 0 64 64" height="512" viewBox="0 0 64 64" width="512" xmlns="http://www.w3.org/2000/svg"><path d="m10 58h44v4h-44z" fill="#c7e2fc"/><path d="m62 58-30-10-30 10z" fill="#e47c6e"/><path d="m57 10c-.359 0-.707.041-1.045.113-.445-4.554-4.284-8.113-8.955-8.113s-8.51 3.559-8.955 8.113c-.338-.072-.686-.113-1.045-.113-2.761 0-5 2.239-5 5s2.239 5 5 5c1.717 0 3.231-.867 4.131-2.186 1.576 1.359 3.624 2.186 5.869 2.186s4.293-.827 5.869-2.186c.9 1.319 2.414 2.186 4.131 2.186 2.761 0 5-2.239 5-5s-2.239-5-5-5z" fill="#a8b0bc"/><path d="m27 10c-.359 0-.707.041-1.045.113-.445-4.554-4.284-8.113-8.955-8.113s-8.51 3.559-8.955 8.113c-.338-.072-.686-.113-1.045-.113-2.761 0-5 2.239-5 5s2.239 5 5 5c1.717 0 3.231-.867 4.131-2.186 1.576 1.359 3.624 2.186 5.869 2.186s4.293-.827 5.869-2.186c.9 1.319 2.414 2.186 4.131 2.186 2.761 0 5-2.239 5-5s-2.239-5-5-5z" fill="#a8b0bc"/><path d="m42 14c-.359 0-.707.041-1.045.113-.445-4.554-4.284-8.113-8.955-8.113s-8.51 3.559-8.955 8.113c-.338-.072-.686-.113-1.045-.113-2.761 0-5 2.239-5 5s2.239 5 5 5c1.717 0 3.231-.867 4.131-2.186 1.576 1.359 3.624 2.186 5.869 2.186s4.293-.827 5.869-2.186c.9 1.319 2.414 2.186 4.131 2.186 2.761 0 5-2.239 5-5s-2.239-5-5-5z" fill="#c1c8d1"/><path d="m24 47-1-3 2-3 3 3-2 3z" fill="#a1cdfb"/><path d="m17 50 1-3-2-3-3 3 2 3z" fill="#a1cdfb"/><path d="m42 45 3-1 3 2-3 3-3-2z" fill="#a1cdfb"/><path d="m54 51-1-3 2-3 3 3-2 3z" fill="#a1cdfb"/><g fill="#c7e2fc"><path d="m32 26v.343c0 2.341.93 4.587 2.586 6.243.905.905 1.414 2.133 1.414 3.414 0 2.209-1.791 4-4 4s-4-1.791-4-4c0-1.281.509-2.509 1.414-3.414 1.656-1.656 2.586-3.901 2.586-6.243z"/><path d="m44 26v.343c0 2.341.93 4.587 2.586 6.243.905.905 1.414 2.133 1.414 3.414 0 2.209-1.791 4-4 4s-4-1.791-4-4c0-1.281.509-2.509 1.414-3.414 1.656-1.656 2.586-3.901 2.586-6.243z"/><path d="m56 22v.343c0 2.341.93 4.587 2.586 6.243.905.905 1.414 2.133 1.414 3.414 0 2.209-1.791 4-4 4s-4-1.791-4-4c0-1.281.509-2.509 1.414-3.414 1.656-1.656 2.586-3.901 2.586-6.243z"/><path d="m18 26v.343c0 2.341-.93 4.587-2.586 6.243-.905.905-1.414 2.133-1.414 3.414 0 2.209 1.791 4 4 4s4-1.791 4-4c0-1.281-.509-2.509-1.414-3.414-1.656-1.656-2.586-3.901-2.586-6.243z"/><path d="m6 22v.343c0 2.341-.93 4.587-2.586 6.243-.905.905-1.414 2.133-1.414 3.414 0 2.209 1.791 4 4 4s4-1.791 4-4c0-1.281-.509-2.509-1.414-3.414-1.656-1.656-2.586-3.901-2.586-6.243z"/></g><path d="m8 45.146h2v6.708h-2z" fill="#c1c8d1" transform="matrix(.447 -.894 .894 .447 -38.405 34.86)"/><path d="m5.959 51.5h6.083v2h-6.083z" fill="#c1c8d1" transform="matrix(.986 -.165 .165 .986 -8.517 2.197)"/></svg>