<svg id="Layer_1" enable-background="new 0 0 512 512" height="512" viewBox="0 0 512 512" width="512" xmlns="http://www.w3.org/2000/svg"><g><path d="m436.359 79.199-41.73-36.215c-39.424-27.106-87.169-42.984-138.629-42.984-75.764 0-143.489 34.397-188.43 88.419l-49.113 216.771c26.828 106.207 123.001 184.814 237.543 184.814 135.311 0 245.002-109.691 245.002-245.002 0-63.952-24.513-122.173-64.643-165.803z" fill="#816ae2"/><path d="m332.732 275.633c29.626 11.355 70.4 27.076 88.288 32.757 7.739 2.457 16.054-1.486 19.057-9.031 3.238-8.135-.92-17.331-9.159-20.294-73.807-26.543-111.248-47.014-130.193-60.575-7.548-5.403-3.752-17.228 5.53-17.304 18.242-.149 43.287-5.872 53.632-8.799 7.102-2.009 11.217-9.406 9.227-16.514-1.771-6.329-7.86-10.44-14.392-9.714-9.098 1.011-32.031 3.526-46.823-1.052-9.674-2.994-19.523-5.38-29.564-6.705-15.129-1.997-36.958-3.896-60.198-2.677-27.175 1.425-54.143-5.4-77.042-20.101l-38.27-24.57-35.255-22.635c-20.115 24.179-35.663 52.287-45.323 83.008l64.784 41.592c22.919 14.714 49.764 21.718 77.635 20.259 23.535-1.233 45.603.761 60.015 2.67 33.587 4.432 28.572 13.102 76.629 7.759 6.065-.672 11.671 3.105 13.317 8.99 1.841 6.574-1.989 13.429-8.536 15.282-12.18 3.446-36.443 8.623-53.368 8.761-4.686.038-8.624 2.937-10.031 7.384-1.398 4.418.144 9.023 3.928 11.732 13.166 9.425 37.061 23.379 79.762 41.163-8.812-9.293-16.908-18.307-23.958-25.953-2.634-2.857 1.093-7.08 4.259-4.826 34.648 24.681 78.115 55.356 95.625 65.062 6.791 3.764 15.333 1.54 19.43-5.055 4.099-6.599 2.307-15.257-4.089-19.666-22.256-15.341-63.354-45.738-88.488-64.454-3.491-2.597-.49-8.051 3.571-6.494z" fill="#fcad6d"/><path d="m182.06 163.8c3.052-2.704 5.19-6.133 6.316-9.85-16.733-2.908-32.819-9.042-47.279-18.326l-38.27-24.57-35.257-22.635c-20.115 24.179-35.663 52.287-45.323 83.008l64.784 41.592c18.969 12.179 40.632 19.058 63.337 20.245 4.005-4.039 6.323-9.586 6.154-15.485-.741-25.777 14.256-43.986 25.538-53.979z" fill="#fd995b"/><path d="m443.967 309.446c-3.895-2.104-5.219-7.039-3.102-10.926 10.479-19.243-4.376-45.098-28.568-42.771-2.654.255-5.189.86-7.566 1.764-3.667 1.394-7.858-.182-9.723-3.634-3.603-6.67-9.109-12.094-15.724-15.619-3.042-1.621-4.498-5.112-3.811-8.49 3.517-17.296-9.564-34.444-27.855-34.841-1.768-.038-3.145-1.298-3.342-3.043-2.606-23.108-29.121-30.479-46.167-17.428-3.205 2.454-7.636 2.236-10.586-.519-7.473-6.978-18.551-10.006-29.727-6.188-12.114 4.138-19.947 16.025-19.301 28.81.004.076.008.151.012.227.194 3.368-.953 6.71-3.232 9.197-3.227 3.522-6.02 8.901-3.75 16.078 4.391 13.882 63.633 209.049 63.633 209.049l43.362 15.094c2.082 1.196 3.93 2.798 5.414 4.746 4.106 5.389 10.817 8.596 18.058 7.9.208-.02.415-.044.622-.07 3.012-.389 6.008.49 8.474 2.262 4.911 3.531 11.072 5.365 17.566 4.741 11.594-1.115 20.559-9.68 22.837-20.358.88-4.124 4.579-7.099 8.796-7.076 25.58.14 43.655-23.928 37.422-47.873-.631-2.425-.159-5.026 1.399-6.988 19.267-24.265 11.268-59.776-15.141-74.044z" fill="#9bd8f9"/><path d="m394.629 42.983c-50.005 52.721-109.065 140.105-131.523 271.977l100.947 12.743c5.574-112.55 38.165-193.507 72.306-248.505-12.486-13.575-26.485-25.733-41.73-36.215z" fill="#73c3f9"/><path d="m415.249 58.852c-6.584-5.637-13.459-10.944-20.621-15.868-50.005 52.721-109.065 140.105-131.523 271.977l100.947 12.743c1.591-32.121 5.389-61.658 10.788-88.763-40.193 4.997-31.273-30.804-31.273-30.804 10.871-65.119 50.615-122.575 71.682-149.285z" fill="#4fabf7"/><ellipse cx="438.563" cy="315.326" fill="#c2e3fc" rx="23.962" ry="23.962" transform="matrix(.846 -.533 .533 .846 -100.59 282.434)"/><path d="m443.281 299.763c-5.983-.755-11.445 3.482-12.2 9.465s3.483 11.445 9.465 12.2c5.983.755 11.445-3.482 12.2-9.465.756-5.982-3.482-11.444-9.465-12.2z" fill="#e9efff"/><ellipse cx="381.822" cy="257.803" fill="#c2e3fc" rx="18.758" ry="18.758" transform="matrix(.382 -.924 .924 .382 -2.185 512.341)"/><path d="m389.428 365.923c-3.527-2.675-4.081-7.754-1.394-11.272 13.3-17.413 2.576-45.237-21.688-46.639-2.661-.154-5.259.056-7.747.585-3.837.817-7.738-1.382-9.053-5.078-2.522-7.092-7.086-13.257-13.022-17.745-2.817-2.13-3.759-5.874-2.549-9.192 6.026-16.525-4.271-35.387-22.242-38.57-1.741-.308-2.91-1.764-2.837-3.519.96-23.235-24.115-34.575-42.957-24.286-3.544 1.935-7.896 1.027-10.393-2.146-6.319-8.032-16.798-12.712-28.421-10.65-12.653 2.245-22.26 12.932-23.501 25.723-.372 3.834-.033 7.427.86 10.727 7.665.576 14.531 1.337 20.193 2.087 33.713 4.449 28.518 13.109 76.629 7.759 6.072-.674 11.671 3.107 13.318 8.99 1.84 6.574-1.989 13.43-8.537 15.282-12.181 3.447-36.446 8.623-53.368 8.761-4.686.038-8.623 2.937-10.031 7.385-1.398 4.418.143 9.024 3.928 11.733 17.667 12.646 54.636 33.443 130.437 60.702 7.725 2.78 11.596 11.377 8.568 18.983-2.795 7.023-10.625 10.732-17.825 8.448-19.027-6.042-67.85-24.921-88.094-32.685-2.168-.832-4.693-.079-5.89 1.912-1.303 2.168-.784 4.771 1.222 6.264 23.327 17.373 65.846 48.849 88.517 64.476 5.98 4.123 7.645 12.203 3.771 18.372-3.873 6.168-12.088 7.995-18.444 4.438-17.217-9.633-57.724-38.131-95.145-64.789-2.135-1.52-4.42-.729-5.637.653-1.215 1.378-1.714 3.74.062 5.666 17.94 19.461 39.461 44.022 63.236 62.8 5.849 4.619 6.575 13.188 1.585 18.721l-.069.077c-4.313 4.779-11.555 5.63-16.846 1.985-14.586-10.052-49.249-39.303-72.725-61.368-1.151-1.082-2.792-1.114-3.984-.072-1.193 1.043-1.381 2.671-.46 3.96 11.327 15.826 28.127 38.243 43.849 55.157 4.018 4.323 4.465 10.627 1.552 15.381 1.874 1.501 3.456 3.367 4.624 5.518 3.233 5.954 9.375 10.15 16.636 10.57.204.012.407.02.61.026 3.04.078 5.874 1.401 8.043 3.533 4.313 4.24 10.121 6.996 16.634 7.372 11.628.672 21.799-6.421 25.683-16.626 1.5-3.94 5.61-6.314 9.773-5.646 25.258 4.053 46.803-16.967 44.307-41.585-.253-2.492.612-4.99 2.452-6.69 22.756-21.03 20.285-57.347-3.63-75.488z" fill="#e9efff"/><g><path d="m301.308 243.707c6.072-.674 11.672 3.107 13.318 8.99 1.841 6.574-1.988 13.43-8.537 15.282-12.181 3.447-36.446 8.623-53.368 8.761-4.686.038-8.623 2.937-10.031 7.385-1.398 4.418.143 9.023 3.928 11.733 8.648 6.191 21.927 14.336 42.119 24.235 4.241-7.572 11.978-13.034 22.529-13.301 1.756-.045 3.13-1.307 3.322-3.065 1.259-11.535 9.052-20.387 18.899-24.049-.023-1.033.122-2.083.49-3.095 6.026-16.525-4.271-35.387-22.242-38.57-1.741-.308-2.91-1.764-2.837-3.519.96-23.235-24.115-34.575-42.957-24.286-3.544 1.935-7.896 1.027-10.392-2.146-6.319-8.032-16.798-12.712-28.421-10.65-12.653 2.245-22.26 12.932-23.501 25.723-.372 3.834-.033 7.427.86 10.727 7.665.576 14.531 1.337 20.193 2.087 33.712 4.448 28.518 13.109 76.628 7.758z" fill="#c2e3fc"/></g><path d="m256 0c-51.049 0-98.446 15.62-137.687 42.331 4.622 28.934 39.153 54.859 77.875 71.026 51.333 21.432 90-20.004 117.333-62.869 9.281-14.555 13.042-28.201 13.966-39.881-22.616-6.889-46.616-10.607-71.487-10.607z" fill="#9181f2"/><path d="m222.656 411.241c24.371 22.908 58.662 51.689 72.843 61.462 5.73 3.949 13.495 3.029 18.156-2.138l.068-.075c5.373-5.956 4.588-15.206-1.707-20.177-24.081-19.02-46.487-44.653-63.12-62.692-2.634-2.857 1.093-7.08 4.258-4.826 34.648 24.681 78.115 55.356 95.625 65.062 6.791 3.764 15.333 1.54 19.43-5.055 4.1-6.599 2.307-15.257-4.089-19.666-22.256-15.341-63.354-45.738-88.488-64.454-3.488-2.598-.487-8.051 3.574-6.495 29.626 11.355 70.4 27.076 88.288 32.757 7.739 2.457 16.054-1.486 19.057-9.031 3.238-8.135-.92-17.331-9.159-20.294-73.807-26.543-111.249-47.014-130.193-60.575-7.548-5.403-3.752-17.228 5.53-17.303 18.242-.149 43.287-5.872 53.632-8.799 7.102-2.009 11.217-9.406 9.227-16.514-1.772-6.329-7.86-10.44-14.392-9.714-9.098 1.011-32.031 3.526-46.823-1.052-9.674-2.994-19.523-5.38-29.564-6.705-15.129-1.997-36.958-3.896-60.198-2.677-27.174 1.425-54.143-5.4-77.042-20.101l-38.27-24.57-26.735-17.164c-7.503 23.511-11.567 48.559-11.567 74.558 0 20.77 2.591 40.933 7.458 60.19 23.575 12.594 41.962 22.659 49.341 27.243 25.966 16.131 75.246 58.37 98.557 78.745 7.29 6.371 14.093 13.265 20.347 20.655 18.65 22.039 44.236 45.167 57.643 56.84 5.145 4.48 12.795 4.51 17.987.084 5.975-5.094 6.493-14.131 1.147-19.883-15.828-17.029-32.766-39.682-43.768-55.058-1.382-1.935 1.214-4.207 2.947-2.578z" fill="#f9ba8f"/><path d="m94.373 351.352c-19.147-72.224 25.161-102.656 49.522-113.604 2.878-1.293 5.372-3.173 7.37-5.454-22.57-1.065-44.555-7.827-63.694-20.115l-38.27-24.57-26.735-17.164c-7.503 23.511-11.567 48.559-11.567 74.558 0 20.77 2.591 40.933 7.458 60.19 23.575 12.594 41.962 22.659 49.341 27.243 7.358 4.571 16.592 11.242 26.575 18.916z" fill="#fcad6d"/><path d="m384.542 244.738c-4.392-.554-8.401 2.556-8.955 6.948-.554 4.391 2.556 8.401 6.948 8.955 4.391.554 8.401-2.556 8.955-6.948.554-4.391-2.556-8.4-6.948-8.955z" fill="#e9efff"/></g></svg>