<svg id="Layer_1" enable-background="new 0 0 512 512" height="512" viewBox="0 0 512 512" width="512" xmlns="http://www.w3.org/2000/svg"><g><path d="m470.983 381.057c17.955-34.068 28.133-72.871 28.133-114.057 0-135.31-109.69-245-245-245s-245 109.69-245 245c0 14.892 1.332 29.473 3.877 43.633 7.624 3.346 249.54 108.523 457.99 70.424z" fill="#8080c1"/><path d="m471.566 379.953c-10.653-21.178-32.569-35.713-57.892-35.713-23.829 0-44.646 12.871-55.899 32.034 2.843 5.236 5.341 10.71 7.425 16.412 1.977 5.41 7.68 8.723 13.561 7.882 3.733-.535 7.545-.807 11.332-.807 20.675 0 39.941 7.935 54.365 21.482 10.357-12.765 19.456-26.59 27.108-41.29z" fill="#515181"/><g><path d="m416.751 360.966c7.194-5.403 15.147-9.072 23.362-11.096-8.072-3.616-17.019-5.63-26.439-5.63-23.83 0-44.646 12.871-55.899 32.034 2.843 5.236 5.341 10.71 7.425 16.413 1.977 5.41 7.68 8.722 13.561 7.882 3.732-.535 7.545-.807 11.332-.807.703 0 1.4.032 2.099.05 3.049-14.979 11.375-28.943 24.559-38.846z" fill="#41416b"/></g><path d="m202.979 428.299h-131.875c-.22.275-.426.562-.642.84 44.89 50.809 110.524 82.861 183.654 82.861 77.669 0 146.887-36.15 191.773-92.533-14.608-13.656-34.219-22.024-55.796-22.024-3.96 0-7.853.284-11.661.83-4.745.681-9.409-1.88-11.054-6.383-17.631-48.239-63.902-82.682-118.245-82.682-28.848 0-55.429 9.703-76.659 26.023 13.498 3.988 24.747 13.847 30.353 27.326 1.075 2.587 3.322 4.403 6.01 4.858 14.838 2.518 25.559 15.286 25.493 30.36-.074 16.831-14.138 30.524-31.351 30.524z" fill="#616196"/><g fill="#515181"><path d="m131.491 447.84c2.617-.812 4.571-2.949 5.28-5.596 1.309-4.891 3.209-9.566 5.614-13.944h-71.281c-.22.275-.426.562-.642.84 11.624 13.157 24.65 25.042 38.826 35.453 5.133-7.816 12.883-13.862 22.203-16.753z"/><path d="m202.827 362.556c1.076 2.587 3.322 4.403 6.01 4.858 1.484.252 2.925.611 4.32 1.06 13.665-28.061 40.653-48.974 73.901-53.434-11.969-3.78-24.705-5.833-37.926-5.833-28.848 0-55.429 9.703-76.659 26.023 13.498 3.989 24.747 13.848 30.354 27.326z"/></g><path d="m449.091 227.992h-24.311c-1.199 0-2.028-1.198-1.604-2.32l16.83-39.266h-47.006l-20.421 69.871c-.22 1.064.593 2.062 1.679 2.062h28.465c1.051 0 1.855.937 1.695 1.976l-18.148 70.002c-.294 1.908 2.3 2.772 3.208 1.068l61.128-100.871c.608-1.143-.22-2.522-1.515-2.522z" fill="#ffe400"/><path d="m209.127 365.701c-2.124-.36-3.868-1.823-4.695-3.812-7.412-17.819-24.977-30.351-45.479-30.351-2.385 0-4.729.171-7.023.5-2.858.41-5.666-1.132-6.657-3.844-10.618-29.051-38.484-49.795-71.212-49.795-25.169 0-47.465 12.272-61.255 31.151 8.021 45.801 28.766 87.216 58.452 120.487h131.721c17.951 0 33.01-14.305 33.089-32.256.071-16.097-11.6-29.477-26.941-32.08z" fill="#7070ab"/><g><path d="m58.841 390.119c1.828-.618 3.166-2.158 3.617-4.034 4.047-16.81 17.822-30.375 35.963-33.265 2.11-.336 4.209-.515 6.284-.548 2.587-.04 4.854-1.8 5.349-4.339 3.081-15.809 11.719-29.947 24.093-39.929-13.857-18.001-35.61-29.605-60.085-29.605-25.169 0-47.465 12.272-61.255 31.151 5.602 31.987 17.417 61.831 34.143 88.26 3.202-3.437 7.251-6.122 11.891-7.691z" fill="#616196"/></g><path d="m171.113 88.521c.553-1.467-.53-3.034-2.098-3.034h-47.748c-1.563 0-2.646-1.557-2.103-3.022l25.208-76.255c1.011-3.058-1.266-6.21-4.488-6.21h-84.768c-2.2 0-4.109 1.518-4.605 3.662l-29.515 127.681c-.348 1.413.722 2.779 2.177 2.779h62.93c1.421 0 2.483 1.304 2.196 2.696l-19.834 96.07c-.287 1.391.775 2.696 2.196 2.696h37.222c1.374 0 2.426 1.225 2.216 2.584l-23.732 91.54c-.385 2.495 3.008 3.624 4.195 1.397l79.938-131.908c.796-1.494-.286-3.297-1.979-3.297h-34.675c-1.568 0-2.651-1.567-2.098-3.034z" fill="#ffe400"/><path d="m130.968 223.957c1.525-3.85-1.312-8.025-5.453-8.025h-21.533c-3.93 0-6.748-3.789-5.618-7.553l27.208-90.561c1.131-3.764-1.687-7.553-5.617-7.553h-48.157c-3.951 0-6.772-3.827-5.603-7.601l31.802-102.664h-42.88c-2.2 0-4.109 1.518-4.605 3.662l-29.516 127.681c-.348 1.413.722 2.779 2.177 2.779h62.93c1.421 0 2.483 1.304 2.196 2.696l-19.834 96.07c-.287 1.391.775 2.696 2.196 2.696h37.222c1.374 0 2.426 1.225 2.216 2.584l-23.732 91.54c-.206 1.336.673 2.274 1.715 2.521z" fill="#fdca00"/><path d="m325.946 241.213h-41.642c-1.603 0-2.687-1.636-2.061-3.112l21.899-51.695h-64.069c-.249 0-.496-.013-.745-.018l-29.172 95.133c-.441 1.439.635 2.895 2.141 2.895h44.401c1.459 0 2.528 1.373 2.171 2.787l-24.834 98.323c-.625 2.472 2.708 3.898 4.066 1.74l89.74-142.622c.938-1.49-.134-3.431-1.895-3.431z" fill="#ffe400"/><path d="m282.7 263.932h-27.431c-3.84 0-6.569-3.736-5.402-7.394l22.376-70.132h-32.171c-.249 0-.496-.013-.744-.018l-29.172 95.133c-.441 1.439.635 2.895 2.141 2.895h44.402c1.459 0 2.528 1.373 2.171 2.787l-24.834 98.323c-.284 1.124.253 2.026 1.047 2.479l52.78-116.056c1.706-3.754-1.039-8.017-5.163-8.017z" fill="#fdca00"/><path d="m422.207 248.669c1.093-2.607-.821-5.486-3.649-5.486h-16.041c-2.706 0-4.614-2.656-3.749-5.22l17.385-51.556h-23.154l-20.421 69.871c-.22 1.064.593 2.062 1.679 2.062h28.464c1.051 0 1.855.937 1.695 1.976l-18.148 70.002c-.132.858.321 1.502.94 1.799z" fill="#fdca00"/><path d="m458.443 84.48c-2.43-.372-4.476-1.982-5.323-4.289-11.333-30.876-40.993-52.906-75.798-52.906-21.391 0-40.823 8.334-55.262 21.919.663 1.132 1.264 2.311 1.779 3.548.758 1.822 2.344 3.102 4.243 3.424 8.939 1.517 15.399 9.21 15.359 18.292-.045 10.141-8.525 18.391-18.903 18.391h-66.966c-8.419 5.709-15.091 13.803-19.046 23.311-.881 2.117-2.738 3.674-4.999 4.058-16.332 2.772-28.757 17.016-28.682 34.155.084 19.111 16.116 34.34 35.227 34.34h209.419c28.931 0 53.134-23.026 53.391-51.956.235-26.452-19.124-48.415-44.439-52.287z" fill="#515181"/><g fill="#41416b"><path d="m328.081 56.176c8.939 1.517 15.399 9.21 15.359 18.292-.028 6.331-3.344 11.924-8.355 15.234.375-.089.748-.182 1.127-.263 2.483-.53 4.962-.874 7.423-1.041 3.067-.209 5.648-2.438 6.077-5.482 3.161-22.434 15.698-42.588 34.309-55.351-2.209-.182-4.443-.278-6.699-.278-21.392 0-40.823 8.334-55.262 21.919.663 1.132 1.265 2.311 1.779 3.548.757 1.82 2.343 3.1 4.242 3.422z"/><path d="m270.655 175.556c-3.653-16.745 5.523-33.271 20.915-39.392 2.131-.847 3.622-2.758 4.041-5.012 3.117-16.772 14.338-31.299 30.274-38.359-.447.031-.893.067-1.348.067h-66.967c-8.419 5.709-15.091 13.803-19.046 23.311-.881 2.117-2.738 3.674-4.999 4.058-16.332 2.772-28.757 17.016-28.682 34.155.084 19.111 16.115 34.34 35.227 34.34h36.658c-2.872-3.788-4.995-8.225-6.073-13.168z"/></g><path d="m196.578 33.515c1.424-.218 2.623-1.162 3.119-2.514 6.641-18.092 24.021-31.001 44.416-31.001 20.417 0 37.801 12.941 44.425 31.064.618 1.692 2.37 2.654 4.153 2.398 1.431-.205 2.893-.312 4.381-.312 12.79 0 23.748 7.819 28.371 18.935.516 1.241 1.604 2.153 2.929 2.378 9.57 1.624 16.851 9.971 16.807 20.014-.049 11.199-9.443 20.123-20.642 20.123h-122.714c-16.953 0-31.135-13.493-31.285-30.445-.138-15.502 11.206-28.371 26.04-30.64z" fill="#616196"/><g><path d="m197.901 76.886c-.138-15.5 11.206-28.37 26.04-30.639 1.424-.218 2.623-1.162 3.119-2.514 6.641-18.092 24.021-31.001 44.416-31.001 1.763 0 3.5.103 5.213.291-8.48-8.067-19.946-13.023-32.576-13.023-20.395 0-37.775 12.909-44.416 31.001-.496 1.352-1.695 2.296-3.119 2.514-14.834 2.269-26.178 15.139-26.04 30.639.151 16.952 14.333 30.445 31.285 30.445h2.037c-3.684-4.975-5.901-11.076-5.959-17.713z" fill="#515181"/></g></g></svg>