<svg height="512" viewBox="0 0 512 512" width="512" xmlns="http://www.w3.org/2000/svg"><g id="flat"><path d="m416 456a8 8 0 0 1 -7.337-4.805l-15.17-34.805a8 8 0 1 1 14.667-6.39l15.173 34.8a8 8 0 0 1 -7.333 11.2z" fill="#5f4623"/><g fill="#027226"><path d="m64.006 272a8 8 0 0 1 -4.806-14.4l11.1-8.322-5.723-14.307a8 8 0 0 1 14.856-5.942l8 20a8 8 0 0 1 -2.633 9.371l-16 12a7.967 7.967 0 0 1 -4.794 1.6z"/><path d="m88.007 280a8 8 0 0 1 -3.929-14.974l10.168-5.719-5.8-16.68a8 8 0 1 1 15.112-5.256l8 23a8 8 0 0 1 -3.634 9.6l-16 9a7.97 7.97 0 0 1 -3.917 1.029z"/><path d="m128 292a8 8 0 0 1 -7.688-5.8l-8-28a8 8 0 0 1 15.384-4.4l8 28a8.007 8.007 0 0 1 -7.696 10.2z"/><path d="m94.992 324a8 8 0 0 1 -6.852-12.117l9-15a8 8 0 1 1 13.72 8.232l-9 15a8 8 0 0 1 -6.868 3.885z"/><path d="m24 312a8 8 0 0 1 -2.81-15.492l16.687-6.258-5.434-15.624a8 8 0 1 1 15.112-5.256l8 23a8 8 0 0 1 -4.747 10.118l-24 9a7.962 7.962 0 0 1 -2.808.512z"/><path d="m64.006 320a8 8 0 0 1 -4.806-14.4l9.946-7.459-3.8-5.7a8 8 0 0 1 13.312-8.876l8 12a8 8 0 0 1 -1.858 10.835l-16 12a7.967 7.967 0 0 1 -4.794 1.6z"/><path d="m57.2 375.639a8 8 0 0 1 -6.943-11.963l4.976-8.729-9.376-9.134a8 8 0 0 1 11.165-11.46l13.808 13.452a8 8 0 0 1 1.37 9.695l-8.04 14.1a8 8 0 0 1 -6.96 4.039z"/><path d="m92.276 366.217a8 8 0 0 1 -8-8v-12.875l-8.439-8.64a8 8 0 0 1 11.447-11.18l10.716 10.971a8 8 0 0 1 2.276 5.59v16.134a8 8 0 0 1 -8 8z"/></g><path d="m240 448h-48l-16-80h48z" fill="#cbcbcb"/><path d="m224 368h96l16 80h-96z" fill="#eaeae8"/><path d="m304 448h-32l-8-40h32z" fill="#e82f3e"/><path d="m224 368-32-40h104l24 40z" fill="#e82f3e"/><path d="m176 368 16-40 32 40z" fill="#d32b39"/><rect fill="#029532" height="80" rx="24" transform="matrix(.93 -.368 .368 .93 -111.284 168.498)" width="48" x="362.105" y="336"/><path d="m431.584 334.336a8 8 0 0 1 -7.188-11.5l13.993-28.778a8 8 0 1 1 14.389 7l-13.994 28.778a8 8 0 0 1 -7.2 4.5z" fill="#8f6934"/><path d="m384 168h-112a8 8 0 0 1 0-16h112a8 8 0 0 1 0 16z" fill="#43dcfe"/><path d="m400 136h-128a40 40 0 1 1 40-40 8 8 0 0 1 -16 0 24 24 0 1 0 -24 24h128a8 8 0 0 1 0 16z" fill="#8feaff"/><path d="m240 264a40 40 0 0 1 0-80h120a8 8 0 0 1 0 16h-120a24 24 0 1 0 24 24 8 8 0 0 1 16 0 40.045 40.045 0 0 1 -40 40z" fill="#8feaff"/><path d="m432 200h-40a8 8 0 0 1 0-16h40a8 8 0 0 1 0 16z" fill="#43dcfe"/><path d="m456 168h-40a8 8 0 0 1 0-16h40a8 8 0 0 1 0 16z" fill="#8feaff"/><path d="m472 136h-40a8 8 0 0 1 0-16h40a8 8 0 0 1 0 16z" fill="#43dcfe"/><path d="m128 200a7.976 7.976 0 0 1 -5.657-2.343l-8-8a8 8 0 0 1 11.314-11.314l8 8a8 8 0 0 1 -5.657 13.657z" fill="#027226"/><path d="m183.994 168a8 8 0 0 1 -7.149-11.58l8-16a8 8 0 0 1 14.31 7.156l-8 16a8 8 0 0 1 -7.161 4.424z" fill="#027226"/><path d="m335.994 288a7.976 7.976 0 0 1 -3.572-.847l-16-8a8 8 0 0 1 7.156-14.31l16 8a8 8 0 0 1 -3.584 15.157z" fill="#027226"/><path d="m199.994 288a7.976 7.976 0 0 1 -3.572-.847l-16-8a8 8 0 1 1 7.156-14.31l16 8a8 8 0 0 1 -3.584 15.157z" fill="#027226"/><path d="m48 176a7.976 7.976 0 0 1 -5.657-2.343l-16-16a8 8 0 0 1 11.314-11.314l16 16a8 8 0 0 1 -5.657 13.657z" fill="#027226"/><path d="m142.8 291.794c-.011-.02-.015-.041-.027-.061a105.572 105.572 0 0 0 -75.816-50.25l-9.821-1.4a8 8 0 0 0 -9.107 7.288 8.207 8.207 0 0 0 7.152 8.6l9.513 1.359a89.579 89.579 0 0 1 57.123 32.322.044.044 0 0 1 -.028.07l-11.241 1.4a168.666 168.666 0 0 1 -73.814-7.308l-10.2-3.4a8 8 0 0 0 -10.261 5.533 8.209 8.209 0 0 0 5.5 9.746l9.9 3.3a184.8 184.8 0 0 0 58.257 9.407 182.187 182.187 0 0 0 22.6-1.4l12.289-1.536q-.215.72-.423 1.442a126.914 126.914 0 0 1 -81.912 42.987l-3.374.378a8 8 0 0 0 .881 15.951 8.084 8.084 0 0 0 .9-.051l3.374-.378a142.84 142.84 0 0 0 72.935-29.983 361.258 361.258 0 0 0 -5.154 113.074c.454 4.091 3.918 1.117 7.941 1.117.3 0 .593.983.893.95 4.392-.488 7.556.557 7.068-3.835a345.558 345.558 0 0 1 12.528-138.2l3.184-10.612a7.978 7.978 0 0 0 -.86-6.51z" fill="#029532"/><path d="m473.571 240-49.571 47.061 43.167 20.99z" fill="#029532"/><path d="m488 456h-464a8 8 0 0 1 0-16h464a8 8 0 0 1 0 16z" fill="#027226"/></g></svg>